<?xml version="1.0" encoding="utf-8"?>
<!-- Generator: Adobe Illustrator 25.4.1, SVG Export Plug-In . SVG Version: 6.00 Build 0)  -->
<svg version="1.1" id="Layer_1" xmlns="http://www.w3.org/2000/svg" xmlns:xlink="http://www.w3.org/1999/xlink" x="0px" y="0px"
	 viewBox="0 0 1026 1027" enable-background="new 0 0 1026 1027" xml:space="preserve">
<path display="none" fill="#393D48" d="M359.796,290.515l65.079,440.914c0,0,7.865,5.279,14.674,7.74l-66.523-445.746
	C373.026,293.423,363.66,291.682,359.796,290.515z"/>
<path display="none" fill="#393D48" d="M442.546,287.518l70.313,451.651c0,0-6.826,2.889-16.573,4.402l-66.697-452.685
	C429.589,290.886,441.502,287.824,442.546,287.518z"/>
<g>
	<polygon fill="#00557E" points="511.181,797.74 511.181,860.037 911.661,683.828 911.661,623.313 	"/>
	<path fill="#00557E" d="M488.043,797.74v60.518l-357.758-160.19c0,0-14.238-49.838,28.479-39.157L488.043,797.74z"/>
	<path fill="#008D93" d="M521.861,536.1c0,0,99.671,33.818,53.392,156.63l226.056-113.913c0,0,62.291-105.014-65.86-137.053
		L521.861,536.1z"/>
	<path fill="#008D93" d="M137.405,416.846v128.154l347.077,145.949c0,0,105.01-26.698,32.036-112.131L137.405,416.846z"/>
	<path fill="#00557E" d="M278.016,379.47l195.787,90.773c0,0,64.078-7.121,19.58-56.955l-215.366-92.555V379.47z"/>
	<path fill="#00557E" d="M539.656,383.028c0,0,35.597,33.818,7.127,87.215l176.206-78.313c0,0,26.7-62.297-30.264-72.977
		L539.656,383.028z"/>
	<g>
		<path fill="#00557E" d="M468.965,504.124L268.142,419.85l5.509-13.126l197.864,83.027c32.228-1.653,52.626-9.999,59.036-24.171
			c8.699-19.23-8.322-47.916-16.791-59.003L275.048,296.946l5.937-12.941L522.8,395.056l1.049,1.309
			c1.405,1.743,34.162,43.064,19.676,75.085c-9.004,19.894-33.552,30.864-72.969,32.604L468.965,504.124z"/>
	</g>
	<g>
		<path fill="#008D93" d="M490.429,727.394c-9.643,0-20.503-1.381-32.706-4.652l-0.995-0.346L129.23,580.004l5.673-13.057
			l327.004,142.176c31.391,8.281,56.892,3.584,73.797-13.571c18.97-19.272,25.732-53.299,16.812-84.677
			c-6.816-23.966-21.194-40.266-39.465-44.72l-0.953-0.305c-52.875-21.149-372.51-158.875-375.73-160.261l-14.642-6.311
			l156.86-72.547l5.978,12.922l-127.92,59.161c63.415,27.304,312.96,134.652,360.287,153.634
			c23.143,5.865,41.091,25.708,49.281,54.534c10.277,36.146,2.093,75.755-20.363,98.56
			C535.148,716.411,517.604,727.391,490.429,727.394z"/>
	</g>
	<g>
		<path fill="#00557E" d="M505.952,892.702l-2.816-1.16L111.826,730.73l-1.091-1.226c-19.466-21.824-26.811-42.361-21.831-61.047
			c7.966-29.923,44.69-42.478,46.247-42.998l2.412-0.804l373.407,142.251L902.508,593.27l-79.019-32.795l5.464-13.156
			l109.653,45.521L511.389,782.301l-2.747-1.044L137.4,639.829c-7.267,2.944-29.753,13.451-34.751,32.344
			c-3.56,13.44,2.377,29.128,17.639,46.638l385.442,158.4L914.1,695.128l5.799,13L505.952,892.702z"/>
	</g>
	<path fill="#008D93" d="M360.891,262.24l145.088,67.268c0,0,47.488-5.276,14.513-42.206l-159.601-68.589V262.24z"/>
	<path fill="#008D93" d="M554.782,264.876c0,0,26.378,25.059,5.273,64.631l130.584-58.034c0,0,19.79-46.166-22.426-54.079
		L554.782,264.876z"/>
	<polygon fill="#008D93" points="661.619,208.163 542.914,262.24 378.037,187.056 492.79,134.298 	"/>
	<g>
		<path fill="#008D93" d="M502.392,354.615l-148.813-62.449l4.08-9.73l146.625,61.528c23.882-1.226,38.995-7.41,43.742-17.911
			c6.457-14.25-6.164-35.507-12.435-43.724l-176.898-81.243l4.404-9.587l179.19,82.29l0.778,0.974
			c1.046,1.292,25.313,31.911,14.582,55.64c-6.666,14.743-24.865,22.874-54.07,24.159L502.392,354.615z"/>
	</g>
</g>
</svg>
